<mxfile host="app.diagrams.net" modified="2024-02-22T12:37:07.570Z" agent="Mozilla/5.0 (Windows NT 10.0; Win64; x64) AppleWebKit/537.36 (KHTML, like Gecko) Chrome/121.0.0.0 Safari/537.36" etag="TgmotyO436xIghVNnmQo" version="23.1.5" type="device">
  <diagram name="Página-1" id="a3kqKr89rX7ECwZtsSd4">
    <mxGraphModel dx="880" dy="460" grid="1" gridSize="10" guides="1" tooltips="1" connect="1" arrows="1" fold="1" page="1" pageScale="1" pageWidth="827" pageHeight="1169" math="0" shadow="0">
      <root>
        <mxCell id="0" />
        <mxCell id="1" parent="0" />
        <mxCell id="qT83YV5vC8s_lbWJ6oI5-1" value="Estoquista" style="shape=umlActor;verticalLabelPosition=bottom;verticalAlign=top;html=1;" vertex="1" parent="1">
          <mxGeometry x="160" y="165" width="30" height="60" as="geometry" />
        </mxCell>
        <mxCell id="qT83YV5vC8s_lbWJ6oI5-4" value="Registrar Entrada de produtos" style="ellipse;whiteSpace=wrap;html=1;" vertex="1" parent="1">
          <mxGeometry x="40" width="140" height="70" as="geometry" />
        </mxCell>
        <mxCell id="qT83YV5vC8s_lbWJ6oI5-12" value="Gerente de setor" style="shape=umlActor;verticalLabelPosition=bottom;verticalAlign=top;html=1;" vertex="1" parent="1">
          <mxGeometry x="620" y="170" width="30" height="60" as="geometry" />
        </mxCell>
        <mxCell id="qT83YV5vC8s_lbWJ6oI5-15" value="Emitir Relatório de posição semanal" style="ellipse;whiteSpace=wrap;html=1;" vertex="1" parent="1">
          <mxGeometry x="344" y="165" width="140" height="70" as="geometry" />
        </mxCell>
        <mxCell id="qT83YV5vC8s_lbWJ6oI5-17" value="Solicitar compra&amp;nbsp; de produto" style="ellipse;whiteSpace=wrap;html=1;" vertex="1" parent="1">
          <mxGeometry x="344" y="30" width="140" height="70" as="geometry" />
        </mxCell>
        <mxCell id="qT83YV5vC8s_lbWJ6oI5-31" value="" style="endArrow=block;startArrow=block;endFill=1;startFill=1;html=1;rounded=0;" edge="1" parent="1">
          <mxGeometry width="160" relative="1" as="geometry">
            <mxPoint x="184" y="199.5" as="sourcePoint" />
            <mxPoint x="344" y="199.5" as="targetPoint" />
          </mxGeometry>
        </mxCell>
        <mxCell id="qT83YV5vC8s_lbWJ6oI5-32" value="" style="endArrow=block;startArrow=block;endFill=1;startFill=1;html=1;rounded=0;entryX=0.25;entryY=0.1;entryDx=0;entryDy=0;entryPerimeter=0;exitX=1;exitY=0.657;exitDx=0;exitDy=0;exitPerimeter=0;" edge="1" parent="1" source="qT83YV5vC8s_lbWJ6oI5-17" target="qT83YV5vC8s_lbWJ6oI5-12">
          <mxGeometry width="160" relative="1" as="geometry">
            <mxPoint x="460" y="150" as="sourcePoint" />
            <mxPoint x="620" y="150" as="targetPoint" />
            <Array as="points" />
          </mxGeometry>
        </mxCell>
        <mxCell id="qT83YV5vC8s_lbWJ6oI5-33" value="" style="endArrow=block;startArrow=block;endFill=1;startFill=1;html=1;rounded=0;entryX=0.05;entryY=0.8;entryDx=0;entryDy=0;entryPerimeter=0;exitX=0.75;exitY=0.1;exitDx=0;exitDy=0;exitPerimeter=0;" edge="1" parent="1" source="qT83YV5vC8s_lbWJ6oI5-1" target="qT83YV5vC8s_lbWJ6oI5-17">
          <mxGeometry width="160" relative="1" as="geometry">
            <mxPoint x="175" y="160" as="sourcePoint" />
            <mxPoint x="335" y="160" as="targetPoint" />
          </mxGeometry>
        </mxCell>
        <mxCell id="qT83YV5vC8s_lbWJ6oI5-35" value="" style="endArrow=block;startArrow=block;endFill=1;startFill=1;html=1;rounded=0;exitX=0.736;exitY=1.014;exitDx=0;exitDy=0;exitPerimeter=0;" edge="1" parent="1" source="qT83YV5vC8s_lbWJ6oI5-4">
          <mxGeometry width="160" relative="1" as="geometry">
            <mxPoint x="10" y="165" as="sourcePoint" />
            <mxPoint x="170" y="165" as="targetPoint" />
          </mxGeometry>
        </mxCell>
        <mxCell id="qT83YV5vC8s_lbWJ6oI5-36" value="Autorizar entrada de produto" style="ellipse;whiteSpace=wrap;html=1;" vertex="1" parent="1">
          <mxGeometry x="565" y="330" width="140" height="70" as="geometry" />
        </mxCell>
        <mxCell id="qT83YV5vC8s_lbWJ6oI5-37" value="" style="endArrow=block;startArrow=block;endFill=1;startFill=1;html=1;rounded=0;exitX=0.5;exitY=0;exitDx=0;exitDy=0;entryX=0.5;entryY=0.817;entryDx=0;entryDy=0;entryPerimeter=0;" edge="1" parent="1" source="qT83YV5vC8s_lbWJ6oI5-36" target="qT83YV5vC8s_lbWJ6oI5-12">
          <mxGeometry width="160" relative="1" as="geometry">
            <mxPoint x="555" y="270" as="sourcePoint" />
            <mxPoint x="715" y="270" as="targetPoint" />
          </mxGeometry>
        </mxCell>
        <mxCell id="qT83YV5vC8s_lbWJ6oI5-47" value="" style="endArrow=block;startArrow=block;endFill=1;startFill=1;html=1;rounded=0;entryX=0.5;entryY=0.5;entryDx=0;entryDy=0;entryPerimeter=0;" edge="1" parent="1" target="qT83YV5vC8s_lbWJ6oI5-12">
          <mxGeometry width="160" relative="1" as="geometry">
            <mxPoint x="484" y="199.5" as="sourcePoint" />
            <mxPoint x="610" y="200" as="targetPoint" />
          </mxGeometry>
        </mxCell>
        <mxCell id="qT83YV5vC8s_lbWJ6oI5-48" value="Consolidar compras" style="ellipse;whiteSpace=wrap;html=1;" vertex="1" parent="1">
          <mxGeometry x="344" y="290" width="140" height="70" as="geometry" />
        </mxCell>
        <mxCell id="qT83YV5vC8s_lbWJ6oI5-49" value="" style="endArrow=block;dashed=1;endFill=0;endSize=12;html=1;rounded=0;exitX=0.5;exitY=1;exitDx=0;exitDy=0;entryX=0.5;entryY=0;entryDx=0;entryDy=0;" edge="1" parent="1" source="qT83YV5vC8s_lbWJ6oI5-15" target="qT83YV5vC8s_lbWJ6oI5-48">
          <mxGeometry width="160" relative="1" as="geometry">
            <mxPoint x="344" y="250" as="sourcePoint" />
            <mxPoint x="504" y="250" as="targetPoint" />
          </mxGeometry>
        </mxCell>
        <mxCell id="qT83YV5vC8s_lbWJ6oI5-50" value="Validar nota fiscal de entrada" style="ellipse;whiteSpace=wrap;html=1;" vertex="1" parent="1">
          <mxGeometry y="140" width="120" height="70" as="geometry" />
        </mxCell>
        <mxCell id="qT83YV5vC8s_lbWJ6oI5-51" value="" style="endArrow=block;dashed=1;endFill=0;endSize=12;html=1;rounded=0;exitX=0;exitY=1;exitDx=0;exitDy=0;entryX=0.5;entryY=0;entryDx=0;entryDy=0;" edge="1" parent="1" source="qT83YV5vC8s_lbWJ6oI5-4" target="qT83YV5vC8s_lbWJ6oI5-50">
          <mxGeometry width="160" relative="1" as="geometry">
            <mxPoint x="-30" y="110" as="sourcePoint" />
            <mxPoint x="130" y="110" as="targetPoint" />
          </mxGeometry>
        </mxCell>
      </root>
    </mxGraphModel>
  </diagram>
</mxfile>
